<svg width="20" height="20" viewBox="0 0 20 20" fill="none" xmlns="http://www.w3.org/2000/svg">
<g clip-path="url(#clip0_1314_107374)">
<path d="M10 19.9999C15.5229 19.9999 20 15.5228 20 10C20 4.47725 15.5229 0.000152588 10 0.000152588C4.47715 0.000152588 0 4.47725 0 10C0 15.5228 4.47715 19.9999 10 19.9999Z" fill="#F0F0F0"/>
<path d="M5.65234 13.4782L6.52191 19.378C7.6052 19.78 8.77695 19.9999 10.0002 19.9999C14.2998 19.9999 17.9652 17.2862 19.3781 13.4782H5.65234Z" fill="#000105"/>
<path d="M5.65234 6.52183L6.52191 0.622059C7.6052 0.220072 8.77695 0.000152588 10.0002 0.000152588C14.2998 0.000152588 17.9652 2.71387 19.3781 6.52183H5.65234Z" fill="#169D4D"/>
<path d="M0 10C0 14.2996 2.71379 17.965 6.52176 19.3779V0.622131C2.71379 2.03504 0 5.70043 0 10Z" fill="#CC162C"/>
</g>
<defs>
<clipPath id="clip0_1314_107374">
<rect width="20" height="19.9997" fill="white"/>
</clipPath>
</defs>
</svg>
