<svg width="20" height="20" viewBox="0 0 20 20" fill="none" xmlns="http://www.w3.org/2000/svg">
<g clip-path="url(#clip0_1402_113627)">
<path d="M10 19.9995C15.5228 19.9995 20 15.5224 20 9.99951C20 4.47666 15.5228 -0.000488281 10 -0.000488281C4.47715 -0.000488281 0 4.47666 0 9.99951C0 15.5224 4.47715 19.9995 10 19.9995Z" fill="#BC242C"/>
<mask id="mask0_1402_113627" style="mask-type:luminance" maskUnits="userSpaceOnUse" x="0" y="-1" width="20" height="21">
<path d="M10 19.9995C15.5228 19.9995 20 15.5224 20 9.99951C20 4.47666 15.5228 -0.000488281 10 -0.000488281C4.47715 -0.000488281 0 4.47666 0 9.99951C0 15.5224 4.47715 19.9995 10 19.9995Z" fill="white"/>
</mask>
<g mask="url(#mask0_1402_113627)">
<path d="M-0.666626 -0.000488281H4.86671L10 1.99951L4.86671 3.99951L10 5.99951L4.86671 7.99951L10 9.99951L4.86671 11.9995L10 13.9995L4.86671 15.9995L10 17.9995L4.86671 19.9995H-0.666626V-0.000488281Z" fill="white"/>
</g>
</g>
<defs>
<clipPath id="clip0_1402_113627">
<rect width="20" height="20" fill="white" transform="translate(0 -0.000488281)"/>
</clipPath>
</defs>
</svg>
