<svg width="20" height="20" viewBox="0 0 20 20" fill="none" xmlns="http://www.w3.org/2000/svg">
<g clip-path="url(#clip0_1314_107388)">
<path d="M19.378 13.4778C19.78 12.3945 20 11.2228 20 9.99958C20 8.77639 19.78 7.60469 19.378 6.52138L10 5.65182L0.621992 6.52138C0.220039 7.60469 0 8.77639 0 9.99958C0 11.2228 0.220039 12.3945 0.621992 13.4778L10 14.3473L19.378 13.4778Z" fill="#F0F0F0"/>
<path d="M10.0001 19.9995C14.2997 19.9995 17.9652 17.2857 19.3781 13.4778H0.62207C2.03504 17.2857 5.70043 19.9995 10.0001 19.9995Z" fill="#CC162C"/>
<path d="M10.0001 -0.000274658C5.70043 -0.000274658 2.03504 2.71344 0.62207 6.5214H19.3781C17.9652 2.71344 14.2997 -0.000274658 10.0001 -0.000274658Z" fill="#169D4D"/>
<path d="M2.92893 2.92859C-0.976309 6.83377 -0.976309 13.1654 2.92893 17.0706C3.94826 16.0513 4.94318 15.0564 6.52174 13.4778V6.52139L2.92893 2.92859Z" fill="#000105"/>
</g>
<defs>
<clipPath id="clip0_1314_107388">
<rect width="20" height="19.9997" fill="white" transform="translate(0 -0.000244141)"/>
</clipPath>
</defs>
</svg>
