<svg width="20" height="20" viewBox="0 0 20 20" fill="none" xmlns="http://www.w3.org/2000/svg">
<g clip-path="url(#clip0_1402_113639)">
<path d="M10 19.9995C15.5228 19.9995 20 15.5224 20 9.99951C20 4.47666 15.5228 -0.000488281 10 -0.000488281C4.47715 -0.000488281 0 4.47666 0 9.99951C0 15.5224 4.47715 19.9995 10 19.9995Z" fill="#C8242B"/>
<mask id="mask0_1402_113639" style="mask-type:luminance" maskUnits="userSpaceOnUse" x="0" y="-1" width="20" height="21">
<path d="M10 19.9995C15.5228 19.9995 20 15.5224 20 9.99951C20 4.47666 15.5228 -0.000488281 10 -0.000488281C4.47715 -0.000488281 0 4.47666 0 9.99951C0 15.5224 4.47715 19.9995 10 19.9995Z" fill="white"/>
</mask>
<g mask="url(#mask0_1402_113639)">
<path d="M10 -0.000488281H20V6.66618H10V-0.000488281Z" fill="#E6E6E6"/>
</g>
<mask id="mask1_1402_113639" style="mask-type:luminance" maskUnits="userSpaceOnUse" x="0" y="-1" width="20" height="21">
<path d="M10 19.9995C15.5228 19.9995 20 15.5224 20 9.99951C20 4.47666 15.5228 -0.000488281 10 -0.000488281C4.47715 -0.000488281 0 4.47666 0 9.99951C0 15.5224 4.47715 19.9995 10 19.9995Z" fill="#E6E6E6"/>
</mask>
<g mask="url(#mask1_1402_113639)">
<path d="M10 13.3328H20V19.9995H10V13.3328Z" fill="#0F7F12"/>
</g>
<path d="M8.10646 3.03987L7.5644 2.40739L6.88651 2.98862L6.20862 2.40739L5.66614 3.03987L6.24653 3.53693L5.66614 4.034L6.20862 4.66647L6.88651 4.08525L7.5644 4.66647L8.10646 4.034L7.52648 3.53693L8.10646 3.03987Z" fill="white"/>
</g>
<defs>
<clipPath id="clip0_1402_113639">
<rect width="20" height="20" fill="white" transform="translate(0 -0.000488281)"/>
</clipPath>
</defs>
</svg>
