<svg width="20" height="20" viewBox="0 0 20 20" fill="none" xmlns="http://www.w3.org/2000/svg">
<g clip-path="url(#clip0_1402_113628)">
<path d="M10 19.9995C15.5228 19.9995 20 15.5224 20 9.99951C20 4.47666 15.5228 -0.000488281 10 -0.000488281C4.47715 -0.000488281 0 4.47666 0 9.99951C0 15.5224 4.47715 19.9995 10 19.9995Z" fill="#8D1B3D"/>
<mask id="mask0_1402_113628" style="mask-type:luminance" maskUnits="userSpaceOnUse" x="0" y="-1" width="20" height="21">
<path d="M10 19.9995C15.5228 19.9995 20 15.5224 20 9.99951C20 4.47666 15.5228 -0.000488281 10 -0.000488281C4.47715 -0.000488281 0 4.47666 0 9.99951C0 15.5224 4.47715 19.9995 10 19.9995Z" fill="white"/>
</mask>
<g mask="url(#mask0_1402_113628)">
<path d="M-0.666626 -0.000488281V19.9995H3.93337L7.99804 18.8888L3.93337 17.7768L7.99804 16.6662L3.93337 15.5555L7.99804 14.4435L3.93337 13.3328L7.99804 12.2222L3.93337 11.1102L7.99804 9.99951L3.93337 8.88885L7.99804 7.77685L3.93337 6.66618L7.99804 5.55551L3.93337 4.44351L7.99804 3.33285L3.93337 2.22218L7.99804 1.11018L3.93337 -0.000488281H-0.666626Z" fill="white"/>
</g>
</g>
<defs>
<clipPath id="clip0_1402_113628">
<rect width="20" height="20" fill="white" transform="translate(0 -0.000488281)"/>
</clipPath>
</defs>
</svg>
