<svg width="20" height="20" viewBox="0 0 20 20" fill="none" xmlns="http://www.w3.org/2000/svg">
<g clip-path="url(#clip0_1402_113626)">
<path d="M10 19.9995C15.5228 19.9995 20 15.5224 20 9.99951C20 4.47666 15.5228 -0.000488281 10 -0.000488281C4.47715 -0.000488281 0 4.47666 0 9.99951C0 15.5224 4.47715 19.9995 10 19.9995Z" fill="#006C35"/>
<path d="M8.00003 4.73285L7.80003 5.13285V5.33285H8.00003L8.0667 5.19952C8.0667 5.06618 8.00003 5.19952 7.93336 5.13285C7.93336 4.99952 8.00003 4.93285 8.13336 4.86618L8.00003 4.66618V4.73285ZM9.33336 4.73285L9.2667 4.86618C9.2667 4.93285 9.0667 5.06618 9.20003 5.33285C9.2667 5.53285 9.33336 5.79952 9.2667 6.06618L9.13336 6.26618C9.00003 6.39952 8.93336 6.39952 8.80003 6.33285C8.80003 6.33285 8.6667 6.26618 8.6667 6.06618V5.33285C8.53336 5.19952 8.40003 5.19952 8.40003 5.33285C8.13337 5.53285 8.00003 5.86618 7.93336 6.19952C7.8667 6.39952 7.80003 6.33285 7.73337 6.26618C7.60003 6.13285 7.60003 5.19952 7.4667 5.39952C7.20003 6.06618 7.60003 6.86618 7.8667 6.73285C8.0667 6.86618 8.13336 6.46618 8.2667 6.06618C8.2667 5.93285 8.33336 5.93285 8.33336 6.06618C8.33336 6.53285 8.40003 6.66618 8.53336 6.79952C8.8667 7.06618 9.0667 6.79952 9.13336 6.79952L9.33336 6.59952H9.53336L9.80003 6.86618C9.93336 6.86618 10.2 6.86618 10.2667 6.73285L10.4 6.46618H10.6C10.6 6.46618 10.4667 6.53285 10.6 6.66618H10.6667C10.8667 6.59952 10.9334 6.26618 10.9334 6.26618L10.8667 6.13285L10.7334 6.26618L10.4 6.19952C10.4 6.06618 10.4 5.86618 10.2667 5.73285C10.2667 5.73285 10.2 5.53285 10.2667 5.46618H10.4667L10.2 4.99952H9.8667V5.26618V5.59952C10 5.73285 10.1334 5.99952 10.0667 6.26618C10.0667 6.26618 10 6.39952 9.80003 6.39952C9.80003 6.39952 9.6667 6.39952 9.60003 5.93285C9.60003 5.59952 9.60003 5.19952 9.4667 4.99952L9.40003 4.79952L9.33336 4.73285ZM8.93336 4.73285L8.80003 4.93285V5.39952C8.73336 5.46618 8.8667 5.53285 8.93336 5.39952L9.00003 4.93285V4.79952L8.93336 4.73285ZM10.5334 4.79952L10.4667 4.93285V5.26618L10.6667 5.53285L11.4667 6.66618C11.6276 7.61276 11.6724 8.57543 11.6 9.53285C11.6667 9.53285 11.8667 9.33285 11.9334 9.06618V7.73285V7.33285L12.8 8.93285V8.26618L12.1334 7.06618L11.8667 6.59952L11.8 5.93285C11.7334 5.59952 11.9334 5.93285 11.8667 5.79952C11.8667 5.46618 11.6667 5.26618 11.4 4.93285C11.4 4.86618 11.4 4.79952 11.2667 4.93285V5.33285L11.0667 5.19952C10.9334 5.06618 10.9334 4.99952 10.7334 4.93285L10.5334 4.79952ZM15.2667 4.86618L15.1334 5.13285V5.66618C14.8 5.33285 15.2667 5.66618 15.1334 5.33285L14.6667 4.93285C14.6 4.93285 14.5334 4.79952 14.5334 4.93285V5.39952C14.8094 5.77058 15.0762 6.14848 15.3334 6.53285C15.3334 7.19952 15.3334 7.73285 15.4667 8.33285C15.4667 8.59952 15.3334 8.99952 15.2667 8.99952H15.0667L14.8 8.59952C14.6667 8.53285 14.6 8.59952 14.5334 8.59952C14.2667 8.86618 14.1334 9.26618 14 9.53285C14 9.59952 13.8667 9.66618 13.7334 9.53285C13.4 9.13285 13.6 8.46618 13.5334 8.66618C13.2667 8.99952 13.4 9.53285 13.4667 9.59952C13.5334 9.79952 13.6 9.93285 13.8 9.99952C14 10.1328 14.1334 10.0662 14.2 9.99952C14.3334 9.79952 14.3334 9.33285 14.4667 9.33285C14.4667 9.13285 14.6 9.13285 14.6667 9.19952C14.7334 9.33285 14.8667 9.39952 14.9334 9.39952C15.0667 9.53285 15.2667 9.59952 15.4667 9.39952C15.6 9.39952 15.6667 9.26618 15.7334 9.13285C15.8667 8.93285 15.7334 7.79952 15.7334 7.13285L16.1334 7.66618V9.33285C16.1334 9.46618 16.5334 8.99952 16.5334 8.86618V8.39952L17.0667 9.26618V8.59952L16.5334 7.66618L16.4 6.93285L16.2667 6.26618V5.93285H16.4L16 4.86618C16 4.79952 15.8667 4.79952 15.7334 4.93285V5.39952L16 6.86618L15.5334 6.26618V6.19952V5.66618H15.6C15.6 5.66618 15.6667 5.66618 15.6 5.53285L15.2667 4.86618ZM3.0667 4.86618C3.00003 4.86618 2.8667 4.86618 2.93337 4.99952L3.0667 5.33285V5.59952C3.20003 5.59952 3.2667 5.46618 3.2667 5.33285C3.2667 5.19952 3.2667 4.93285 3.0667 4.86618ZM17 4.86618L16.9334 4.99952C16.8667 5.06618 16.8 5.33285 16.8667 5.53285C17.0363 6.77022 17.1253 8.01728 17.1334 9.26618L16.8 9.66618L16.3334 9.86618C16.1334 9.99952 16.1334 10.1328 16.3334 10.1328C16.6667 10.1328 17 10.1328 17.3334 9.66618L17.4667 8.99952C17.4667 7.93285 17.4667 6.79952 17.3334 5.99952C17.3334 5.93285 17.2667 5.73285 17.3334 5.73285L17.4667 5.66618L17.0667 4.99952L17 4.86618ZM13.4 4.86618V4.99952C13.2667 5.26618 13.2 5.53285 13.2667 5.66618C13.5334 6.99952 13.7334 8.13285 13.7334 9.33285C13.8667 9.33285 14 9.06618 14 8.79952V7.99952L13.7334 5.99952C13.6667 5.66618 13.9334 5.93285 13.9334 5.73285L13.4667 4.99952V4.93285L13.4 4.86618ZM4.73336 4.86618V5.13285H4.6667V4.99952H4.60003V5.06618L4.53337 5.13285H4.4667V4.99952H4.40003L4.33336 5.13285L4.40003 5.39952C4.60003 5.46618 4.8667 5.39952 4.8667 5.13285V5.06618L4.80003 4.99952L4.73336 4.86618ZM7.00003 4.86618L6.8667 4.99952C6.73337 5.06618 6.73337 5.26618 6.8667 5.33285C6.8667 5.33285 7.00003 5.46618 6.8667 5.53285L6.13336 6.26618H6.60003L7.2667 5.53285V5.33285C7.20003 5.33285 7.20003 5.33285 7.2667 5.33285C7.40003 5.19952 7.33336 4.99952 7.2667 4.86618H7.0667H7.00003ZM12.8 4.86618V4.99952C12.6667 5.13285 12.6 5.33285 12.6 5.53285C12.8 6.66618 12.8 7.66618 12.9334 8.73285L12.8667 9.06618C12.6 9.33285 12.2 9.73285 11.8 9.86618C11.8 9.86618 11.9334 10.1328 12.1334 10.1328C12.4667 10.1328 12.8 9.93285 13 9.39952C13.0667 9.26618 13.2 9.06618 13.2 8.86618C13.2636 7.83962 13.1964 6.80913 13 5.79952H13.1334C13.2 5.66618 13 5.19952 12.8667 4.99952V4.93285L12.8 4.86618ZM3.80003 4.93285L3.73336 5.06618V5.59952L3.8667 6.39952C3.8667 6.79952 3.6667 6.59952 3.6667 6.39952V5.59952L3.4667 5.53285C3.40003 5.53285 3.20003 5.73285 3.13336 6.06618V6.39952C3.0667 6.59952 2.93337 6.73285 2.8667 6.39952C2.80003 6.13285 2.73337 5.53285 2.60003 5.73285C2.60003 6.13285 2.53337 6.99952 2.93337 7.06618C3.40003 7.06618 3.13336 6.26618 3.33337 6.13285C3.33337 5.99952 3.40003 5.99952 3.40003 6.13285V6.79952C3.40003 7.06618 3.60003 7.13285 3.6667 7.19952C3.80003 7.19952 3.93337 7.19952 3.93337 7.33285L4.00003 8.59952C4.00003 8.59952 4.33336 8.66618 4.33336 7.93285C4.33336 7.39952 4.20003 6.99952 4.33336 6.93285C4.33336 6.86618 4.40003 6.86618 4.4667 6.93285L4.8667 7.06618C5.13337 6.93285 5.33336 6.79952 5.33336 6.59952C5.33336 6.33285 5.33337 6.13285 5.20003 5.93285V5.73285C5.20003 5.79952 5.33336 5.79952 5.33336 5.73285C5.2667 5.59952 5.20003 5.39952 5.0667 5.33285C4.93336 5.26618 4.80003 5.33285 4.73336 5.46618C4.73336 5.66618 4.80003 5.93285 5.00003 6.13285V6.53285H4.80003L4.6667 6.19952V5.59952L4.4667 5.33285H4.2667V6.06618L4.40003 6.33285C4.40003 6.39952 4.2667 6.39952 4.2667 6.33285L4.13336 5.66618C4.13336 5.39952 4.13337 4.99952 4.00003 4.99952C4.00003 4.93285 4.00003 4.86618 3.8667 4.86618L3.80003 4.93285ZM5.53337 4.93285H5.4667C5.33336 4.99952 5.2667 5.13285 5.2667 5.26618L5.60003 7.26618C5.60003 7.39952 5.60003 7.53285 5.4667 7.53285C5.2667 7.39952 5.2667 7.19952 5.00003 7.19952C4.80003 7.19952 4.53337 7.39952 4.53337 7.59952V8.06618C4.6667 8.26618 4.8667 8.26618 5.00003 8.19952C5.13336 8.19952 5.20003 7.99952 5.2667 8.06618C5.2667 8.06618 5.2667 8.46618 4.6667 8.73285C4.33336 8.93285 4.0667 8.99952 3.93337 8.73285C3.80003 8.53285 3.93336 7.86618 3.6667 8.06618C3.00003 9.73285 5.2667 9.93285 5.4667 8.06618L5.60003 7.99952C5.60003 9.73285 3.93336 9.86618 3.60003 9.33285V8.66618L3.4667 8.53285C3.4667 8.46618 3.33337 8.53285 3.2667 8.79952V9.19952C3.33337 10.5328 5.4667 9.99952 5.8667 8.86618C6.00003 8.33285 5.8667 7.86618 5.8667 7.79952C6.13337 8.06618 6.40003 7.79952 6.53336 7.79952C6.53337 7.78184 6.54039 7.76488 6.55289 7.75238C6.56539 7.73987 6.58235 7.73285 6.60003 7.73285C6.61771 7.73285 6.63467 7.73987 6.64717 7.75238C6.65967 7.76488 6.6667 7.78184 6.6667 7.79952C6.80003 7.86618 7.0667 7.79952 7.13336 7.59952L7.20003 6.93285L7.00003 7.06618V7.26618H6.93336C6.93336 7.33285 6.80003 7.33285 6.80003 7.26618C6.80003 7.06618 6.53337 6.99952 6.40003 7.39952H6.13336C6.13336 7.13285 6.13337 7.06618 5.8667 7.19952L5.73337 5.79952H5.93336L5.60003 4.93285H5.53337ZM12.1334 4.93285C12.0667 4.93285 11.9334 4.99952 12 5.13285L12.2 5.46618V5.79952L12.4 5.46618C12.4 5.33285 12.3334 5.06618 12.1334 4.99952V4.93285ZM7.00003 5.13285L7.0667 5.19952V5.33285L6.93336 5.26618V5.13285H7.00003ZM16.5334 5.39952C16.5085 5.39601 16.4831 5.3996 16.4602 5.40987C16.4373 5.42014 16.4177 5.43668 16.4038 5.45758C16.3899 5.47848 16.3821 5.5029 16.3814 5.52801C16.3808 5.55312 16.3872 5.57791 16.4 5.59952L16.6 5.93285V6.33285L16.7334 5.93285C16.7334 5.86618 16.7334 5.46618 16.5334 5.39952ZM11.2 5.53285L11.2667 5.59952V5.79952L11.2 5.66618C11.0667 5.46618 11.2 5.53285 11.2 5.53285ZM12.4 6.13285V6.26618H12.3334V6.13285H12.2667V6.19952L12.2 6.26618H12.1334V6.13285H12L11.9334 6.26618L12 6.53285C12.2 6.59952 12.4667 6.53285 12.4667 6.26618V6.19952L12.4 6.13285ZM6.93336 6.13285L6.8667 6.19952C6.6667 6.26618 6.6667 6.53285 6.73337 6.66618C6.80003 6.79952 6.93336 6.73285 6.93336 6.73285C7.13336 6.73285 7.20003 6.46618 7.20003 6.46618L7.00003 6.53285H6.93336V6.26618V6.19952V6.13285ZM14.7334 6.19952C14.6667 6.19952 14.6 6.26618 14.6 6.39952V6.53285H14.4667V6.46618H14.2V6.73285C14.2667 6.93285 14.6 7.19952 14.7334 7.19952V6.73285C14.7334 6.66618 14.7334 6.59952 14.8667 6.59952H14.9334V6.26618H14.6667L14.7334 6.19952ZM8.2667 6.73285L8.20003 6.79952L8.0667 7.13285L8.33336 7.79952L8.4667 8.66618C8.2667 8.99952 7.93336 9.33285 7.53336 9.53285H7.20003C7.15913 9.51847 7.12401 9.49119 7.09997 9.45511C7.07592 9.41904 7.06424 9.37613 7.0667 9.33285C7.40003 9.13285 7.73336 8.99952 8.00003 8.46618V7.79952C7.9869 7.6783 7.94079 7.56301 7.8667 7.46618H8.0667L7.80003 6.99952H7.4667C7.40003 7.06618 7.33336 7.26618 7.4667 7.46618L7.73337 7.93285V8.19952C7.73337 8.33285 7.0667 8.79952 7.0667 8.86618V8.66618V8.33285C6.8667 8.46618 6.80003 8.86618 6.80003 8.99952C6.33336 9.26618 5.73336 9.53285 5.4667 9.86618C5.2667 10.1329 6.60003 9.59952 6.73337 9.53285C6.73337 9.53285 6.73337 9.66618 6.8667 9.73285C7.00003 9.93285 7.2667 10.0662 7.53336 9.99952C8.00003 9.79952 8.2667 9.46618 8.53336 9.13285H8.73337C8.93336 9.53285 9.40003 9.79952 10.1334 9.79952C10.3334 9.66618 10.2 9.53285 10.1334 9.53285L9.73337 9.26618C9.73337 9.13285 9.80003 8.99952 9.93336 8.93285C10.4 8.93285 10.8667 8.79952 11.2667 8.66618L11.4 8.19952H11.5334L11.4 8.06618H10C10.3334 7.99952 10.9334 7.86618 11 7.26618C11 6.99952 10.8667 6.79952 10.4667 6.73285C10.2 6.73285 10 6.99952 10.0667 7.33285L10 7.53285C9.4667 7.59952 8.8667 7.93285 8.8667 8.19952C8.8667 8.19952 8.73336 8.13285 8.80003 7.99952C8.80003 7.59952 8.60003 7.19952 8.40003 6.79952L8.2667 6.66618V6.73285ZM9.60003 6.99952V7.13285L9.4667 7.06618V6.99952H9.33336V7.06618L9.2667 6.99952C9.13336 6.99952 9.13336 7.06618 9.13336 7.13285C9.13336 7.13285 9.13336 7.33285 9.2667 7.39952C9.40003 7.39952 9.80003 7.39952 9.73337 7.13285V6.99952H9.6667H9.60003ZM15.2 7.19952L14.4 7.73285V8.06618L15.2 7.46618V7.19952ZM10.3334 7.26618H10.4667L10.5334 7.39952C10.5334 7.46618 10.4667 7.46618 10.4 7.39952L10.3334 7.33285V7.26618ZM3.6667 7.39952C3.2667 7.39952 2.6667 7.93285 2.6667 8.19952L3.93337 7.59952C3.8667 7.53285 3.93336 7.39952 3.6667 7.39952ZM5.00003 7.59952V7.79952H4.80003V7.66618L4.93337 7.59952H5.00003ZM15 7.73285C14.9808 7.73958 14.9634 7.75062 14.9491 7.76513C14.9349 7.77963 14.9241 7.7972 14.9177 7.81651C14.9112 7.83581 14.9093 7.85633 14.912 7.8765C14.9147 7.89667 14.922 7.91594 14.9334 7.93285L15.0667 8.33285V8.66618C15.0667 8.66618 15.2667 8.53285 15.2667 8.33285C15.2667 8.19952 15.2667 7.79952 15.0667 7.73285H15ZM6.4667 8.13285C6.40003 8.13285 6.33337 8.13285 6.40003 8.26618L6.53336 8.53285V8.79952L6.73337 8.53285C6.73337 8.46618 6.6667 8.19952 6.53336 8.13285H6.4667ZM9.00003 8.46618L9.6667 8.53285C9.80003 8.53285 9.8667 8.66618 9.73337 8.73285C9.60003 8.79952 9.4667 8.86618 9.4667 9.06618V9.26618H9.2667C9.20003 9.13285 8.93336 8.99952 8.8667 8.59952C8.8667 8.56415 8.88075 8.53024 8.90575 8.50524C8.93076 8.48023 8.96467 8.46618 9.00003 8.46618ZM2.73336 8.73285V8.79952C2.4667 9.19952 2.4667 9.73285 2.60003 9.93285C2.60003 9.99952 2.73337 10.0662 2.8667 9.99952C3.00003 9.99952 3.0667 9.66618 3.00003 9.53285C3.00003 9.46618 3.00003 9.46618 2.8667 9.53285C2.80003 9.73285 2.73336 9.53285 2.73336 9.46618V8.86618V8.73285ZM10.8 9.26618L10.5334 9.46618V9.53285C10.5334 9.59952 10.5334 9.53285 10.6 9.53285C10.6667 9.53285 10.7334 9.53285 10.7334 9.66618V9.79952H10.8667L11.3334 9.66618V9.46618C11.2 9.46618 11.0667 9.46618 11 9.59952H10.8667V9.26618H10.8ZM15.9334 9.46618H15.8667L15.8 9.53285L15.8667 9.66618C15.8667 9.66618 15.9334 9.73285 15.8667 9.79952L15.7334 9.93285V10.0662C15.9334 10.0662 16.2667 9.86618 16.2667 9.86618V9.79952H16.1334C16.1334 9.79952 16.0667 9.79952 16.1334 9.66618V9.53285L16.0667 9.46618H15.9334ZM13.8 13.7995C13.5334 13.7995 13.6 14.0662 13.7334 14.1995H6.53336L4.53337 14.1328C4.8667 14.5995 5.33336 14.6662 5.93336 14.6662H13.6667C13.6 14.8662 13.6667 15.1328 13.8 15.1995L14 15.1328H15.1334C15.1334 15.1328 15.2 15.2662 15.3334 15.2662C15.5334 15.2662 15.6667 15.1995 15.6667 14.7995C15.6667 14.7995 15.6667 14.1328 15.2 14.1995L14.8667 14.2662H13.9334V13.9328H13.8667V13.7995H13.8ZM14 14.6662H15.0667V14.9328H14.6667C14.6667 14.7995 14.4 14.7995 14.4 14.8662H13.8667V14.6662H14Z" fill="white"/>
</g>
<defs>
<clipPath id="clip0_1402_113626">
<rect width="20" height="20" fill="white" transform="translate(0 -0.000488281)"/>
</clipPath>
</defs>
</svg>
